<svg xmlns="http://www.w3.org/2000/svg" width="2888" height="512" viewBox="0 0 722 128" role="img" aria-labelledby="edithere-lockup-title">
  <title id="edithere-lockup-title">EditHere</title>
  <desc>EditHere blue editing icon with the amber-cap pen wordmark.</desc>
  <svg width="150" height="150" viewBox="8 6 52 52" x="-12" y="-12">
    <defs>
      <linearGradient id="helpdesign-blue" gradientUnits="userSpaceOnUse" x1="48" y1="10" x2="16" y2="48">
        <stop offset="0" stop-color="#61ADFF" />
        <stop offset="1" stop-color="#3155D9" />
      </linearGradient>
    </defs>
    <path fill="url(#helpdesign-blue)" d="M 48 34 V 40.2 A 7.8 7.8 0 0 1 40.2 48 H 23.8 A 7.8 7.8 0 0 1 16 40.2 V 23.8 A 7.8 7.8 0 0 1 23.8 16 H 30 A 2.5 2.5 0 0 1 30 21 H 23.8 A 2.8 2.8 0 0 0 21 23.8 V 40.2 A 2.8 2.8 0 0 0 23.8 43 H 40.2 A 2.8 2.8 0 0 0 43 40.2 V 34 A 2.5 2.5 0 0 1 48 34 Z" />
    <path fill="url(#helpdesign-blue)" d="M 33.52406 31.8923 A 0.75 0.75 0 0 1 32.61326 30.98149 L 33.90457 25.86793 A 2.5 2.5 0 0 1 34.56071 24.71226 L 45.66988 13.60309 A 1.4 1.4 0 0 1 47.64978 13.60309 L 50.90247 16.85578 A 1.4 1.4 0 0 1 50.90247 18.83568 L 39.7933 29.94485 A 2.5 2.5 0 0 1 38.63763 30.60099 Z" />
  </svg>
  <g transform="translate(150 0)">
    <defs>
      <linearGradient id="a-main" gradientUnits="userSpaceOnUse" x1="0" y1="0" x2="570" y2="110">
        <stop stop-color="#70A9FF" />
        <stop offset=".5" stop-color="#88A7FF" />
        <stop offset="1" stop-color="#9686FF" />
      </linearGradient>
      <linearGradient id="pen" gradientUnits="userSpaceOnUse" x1="179.93297661675348" y1="38" x2="179.93297661675348" y2="114">
        <stop stop-color="#91BDFF" />
        <stop offset="1" stop-color="#7297F1" />
      </linearGradient>
      <linearGradient id="cap" x1="0" y1="0" x2=".5" y2="1">
        <stop stop-color="#FFB352" />
        <stop offset="1" stop-color="#F38A35" />
      </linearGradient>
    </defs>
    <g fill="url(#a-main)">
      <path d="M12.0 112.0V12.0H75.95840115017361V25.90065511067708H26.754842122395836V53.57857259114583H67.62506781684027V67.47922770182291H26.754842122395836V98.09934488932292H75.95840115017361V112.0Z" />
      <path d="M119.87040201822917 114.08333333333333Q109.43522135416667 114.08333333333333 101.82236565483942 108.86400519476996Q94.20950995551216 103.6446770562066 90.05614386664497 94.67534891764323Q85.90277777777779 85.70602077907986 85.90277777777779 74.45602077907986Q85.90277777777779 63.12962510850694 90.08160909016928 54.195019192165795Q94.26044040256077 45.26041327582465 101.94969177246094 40.08853997124565Q109.63894314236111 34.91666666666666 120.18293592664932 34.91666666666666Q130.81141153971356 34.91666666666666 138.07009379069012 40.09201558430989Q145.32877604166669 45.267364501953125 149.0567864312066 54.21470303005643Q152.78479682074652 63.16204155815972 152.78479682074652 74.45602077907986Q152.78479682074652 85.68403116861978 149.04405381944446 94.65335930718315Q145.30331081814236 103.62268744574652 137.97922770182294 108.85301038953992Q130.65514458550348 114.08333333333333 119.87040201822917 114.08333333333333ZM121.95841471354167 100.75213623046875Q129.06948513454861 100.75213623046875 133.535885281033 97.39915296766493Q138.00228542751736 94.04616970486111 140.08675469292535 88.10466003417969Q142.17122395833334 82.16315036349826 142.17122395833334 74.45602077907986Q142.17122395833334 66.70491197374132 140.0757598876953 60.78539191351996Q137.9802958170573 54.86587185329861 133.60880533854169 51.55686781141493Q129.23731486002606 48.24786376953125 122.43296305338542 48.24786376953125Q115.27791341145834 48.24786376953125 110.64368353949654 51.755944146050346Q106.00945366753473 55.26402452256944 103.77914428710938 61.20727199978298Q101.54883490668404 67.15051947699652 101.54883490668404 74.45602077907986Q101.54883490668404 81.83096652560764 103.77566867404514 87.79620361328125Q106.00250244140625 93.76144070095486 110.51809522840712 97.25678846571181Q115.03368801540799 100.75213623046875 121.95841471354167 100.75213623046875ZM142.17122395833334 112.0V58.19225396050347H140.42582194010419V12.0H155.27557373046875V112.0Z" />
      <path d="M249.4764906141493 112.0Q242.38039076063367 113.39236450195312 235.54181688096787 113.17477416992188Q228.70324300130207 112.95718383789062 223.32995368109806 110.53588528103299Q217.95666436089408 108.11458672417535 215.18697374131943 102.870361328125Q212.76102973090278 98.19325425889757 212.6001512315538 93.3645256890191Q212.43927273220484 88.53579711914062 212.43927273220484 82.39340549045139V16.166666666666657H227.19411485460068V81.63412814670139Q227.19411485460068 86.16305541992188 227.29828152126737 89.5050777859158Q227.40244818793403 92.84710015190973 228.72189263237846 95.10635036892361Q231.22189263237846 99.39452785915799 236.68601413302952 99.994630601671Q242.15013563368055 100.59473334418402 249.4764906141493 99.51603868272569ZM198.1222222222222 48.81264241536458V37.0H249.4764906141493V48.81264241536458Z" />
      <path d="M264.6194444444444 112.0V12.0H279.3742865668403V55.00221761067708H329.1101399739583V12.0H343.86498209635414V112.0H329.1101399739583V68.90287272135416H279.3742865668403V112.0Z" />
      <path d="M393.6102620442708 114.08333333333333Q382.36834920247395 114.08333333333333 373.93546074761286 109.17302958170572Q365.5025722927517 104.26272583007812 360.7901750352647 95.49247402615018Q356.0777777777777 86.72222222222223 356.0777777777777 75.16436767578125Q356.0777777777777 62.87270100911458 360.7079979790581 53.84144761827257Q365.3382181803385 44.81019422743056 373.60501471625435 39.86343044704861Q381.8718112521701 34.91666666666666 392.8509847005208 34.91666666666666Q404.3266960991753 34.91666666666666 412.39267849392354 40.25232611762152Q420.45866088867183 45.587985568576386 424.44997863769527 55.3935546875Q428.4412963867187 65.19912380642361 427.63456420898433 78.63431803385416H412.8901489257812V73.27312554253473Q412.7582112630208 60.319498697916664 407.99090779622395 54.14131673177083Q403.2236043294271 47.963134765625 393.4204427083333 47.963134765625Q382.60221557617183 47.963134765625 377.16302524142793 54.77674357096354Q371.723834906684 61.59035237630208 371.723834906684 74.5Q371.723834906684 86.74527994791666 377.16302524142793 93.46397908528645Q382.60221557617183 100.18267822265625 392.8509847005208 100.18267822265625Q399.5939792209201 100.18267822265625 404.51985541449653 97.13641357421875Q409.4457316080729 94.09014892578125 412.1887532552083 88.36335584852431L426.63574083116316 92.94441731770833Q422.28968166775167 103.00229899088542 413.38862813313796 108.54281616210938Q404.48757459852425 114.08333333333333 393.6102620442708 114.08333333333333ZM366.946002875434 78.63431803385416V67.20131429036458H420.2745212131076V78.63431803385416Z" />
      <path d="M439.50555555555553 112.0V37.0H452.60990532769097V55.201395670572914L450.80434977213537 52.8402845594618Q452.17472466362847 49.21527099609375 454.4073737250434 46.19674343532986Q456.6400227864583 43.178215874565964 459.60995958116314 41.22682020399306Q462.42824096679686 39.14235093858507 465.9415347629123 38.00694444444444Q469.45482855902776 36.87153795030382 473.12148166232635 36.62848239474826Q476.788134765625 36.385426839192704 480.1469333224826 37.0V50.8126966688368Q476.5381618923611 49.81848483615451 472.0653784857856 50.24093288845486Q467.59259507921 50.663380940755204 463.88543836805553 53.07421875Q460.3541985405816 55.283674452039925 458.2714331732856 58.5330590142144Q456.18866780598955 61.782443576388886 455.2719875759548 65.74769422743056Q454.3553073459201 69.71294487847223 454.3553073459201 74.10645887586806V112.0Z" />
      <path d="M525.4352620442708 114.08333333333333Q514.1933492024739 114.08333333333333 505.7604607476128 109.17302958170572Q497.3275722927517 104.26272583007812 492.6151750352647 95.49247402615018Q487.9027777777777 86.72222222222223 487.9027777777777 75.16436767578125Q487.9027777777777 62.87270100911458 492.5329979790581 53.84144761827257Q497.1632181803385 44.81019422743056 505.4300147162543 39.86343044704861Q513.69681125217 34.91666666666666 524.6759847005208 34.91666666666666Q536.1516960991753 34.91666666666666 544.2176784939236 40.25232611762152Q552.2836608886719 45.587985568576386 556.2749786376953 55.3935546875Q560.2662963867188 65.19912380642361 559.4595642089844 78.63431803385416H544.7151489257812V73.27312554253473Q544.5832112630208 60.319498697916664 539.8159077962239 54.14131673177083Q535.048604329427 47.963134765625 525.2454427083333 47.963134765625Q514.4272155761719 47.963134765625 508.9880252414279 54.77674357096354Q503.54883490668396 61.59035237630208 503.54883490668396 74.5Q503.54883490668396 86.74527994791666 508.9880252414279 93.46397908528645Q514.4272155761719 100.18267822265625 524.6759847005208 100.18267822265625Q531.41897922092 100.18267822265625 536.3448554144965 97.13641357421875Q541.2707316080729 94.09014892578125 544.0137532552083 88.36335584852431L558.4607408311631 92.94441731770833Q554.1146816677517 103.00229899088542 545.213628133138 108.54281616210938Q536.3125745985243 114.08333333333333 525.4352620442708 114.08333333333333ZM498.77100287543396 78.63431803385416V67.20131429036458H552.0995212131076V78.63431803385416Z" />
    </g>
    <path d="M 176.55555555555557 12 H 183.31039767795139 Q 187.31039767795139 12 187.31039767795139 16 V 26 Q 187.31039767795139 28 185.31039767795139 28 H 174.55555555555557 Q 172.55555555555557 28 172.55555555555557 26 V 16 Q 172.55555555555557 12 176.55555555555557 12 Z" fill="url(#cap)" />
    <path d="M 174.35555555555558 40 H 185.51039767795137 Q 187.31039767795139 40 187.31039767795139 41.8 V 98 Q 187.31039767795139 100 185.81039767795139 102 L 181.18297661675348 111 Q 179.93297661675348 113.6 178.68297661675348 111 L 174.05555555555557 102 Q 172.55555555555557 100 172.55555555555557 98 V 41.8 Q 172.55555555555557 40 174.35555555555558 40 Z" fill="url(#pen)" />
  </g>
</svg>